<?xml version="1.0" encoding="UTF-8" standalone="no"?>
<svg
   viewBox="0 0 1133.8583 944.8819"
   width="300mm"
   height="250mm"
   version="1.1"
   id="svg170"
   sodipodi:docname="RGB window.svg"
   inkscape:version="1.1.2 (b8e25be833, 2022-02-05)"
   xmlns:inkscape="http://www.inkscape.org/namespaces/inkscape"
   xmlns:sodipodi="http://sodipodi.sourceforge.net/DTD/sodipodi-0.dtd"
   xmlns="http://www.w3.org/2000/svg"
   xmlns:svg="http://www.w3.org/2000/svg">
  <sodipodi:namedview
     id="namedview172"
     pagecolor="#ffffff"
     bordercolor="#666666"
     borderopacity="1.0"
     inkscape:pageshadow="2"
     inkscape:pageopacity="0.0"
     inkscape:pagecheckerboard="0"
     showgrid="false"
     inkscape:zoom="0.28997265"
     inkscape:cx="569.01918"
     inkscape:cy="651.78561"
     inkscape:window-width="1600"
     inkscape:window-height="837"
     inkscape:window-x="-8"
     inkscape:window-y="-8"
     inkscape:window-maximized="1"
     inkscape:current-layer="g168"
     units="mm"
     inkscape:document-units="mm" />
  <desc
     id="desc142">RGB window.dxf - scale = 1.0, origin = (0.0, 0.0), method = manual</desc>
  <defs
     id="defs156">
    <marker
       id="DistanceX"
       orient="auto"
       refX="0"
       refY="0"
       style="overflow:visible">
      <path
         d="M 3,-3 -3,3 M 0,-5 V 5"
         style="stroke:#000000;stroke-width:0.5"
         id="path144" />
    </marker>
    <pattern
       id="Hatch"
       patternUnits="userSpaceOnUse"
       width="8"
       height="8"
       x="0"
       y="0">
      <path
         d="M8 4 l-4,4"
         stroke="#000000"
         stroke-width="0.25"
         linecap="square"
         id="path147" />
      <path
         d="M6 2 l-4,4"
         stroke="#000000"
         stroke-width="0.25"
         linecap="square"
         id="path149" />
      <path
         d="M4 0 l-4,4"
         stroke="#000000"
         stroke-width="0.25"
         linecap="square"
         id="path151" />
    </pattern>
    <symbol
       id="*MODEL_SPACE" />
    <symbol
       id="*PAPER_SPACE" />
  </defs>
  <g
     inkscape:groupmode="layer"
     inkscape:label="0"
     id="g168">
    <path
       d="m 1005.9646,28.9567 a 9.448835,9.448835 0 1 0 -18.89767,0 9.448835,9.448835 0 1 0 18.89767,0 z"
       style="fill:none;stroke:#ff0000;stroke-opacity:1"
       id="path158" />
    <path
       d="m 38.405512,28.9567 a 9.448819,9.448819 0 1 0 -18.897638,0 9.448819,9.448819 0 1 0 18.897638,0 z"
       style="fill:none;stroke:#ff0000;stroke-opacity:1"
       id="path160" />
    <path
       d="m 1005.9646,165.0196 a 9.448835,9.448835 0 1 0 -18.89767,0 9.448835,9.448835 0 1 0 18.89767,0 z"
       style="fill:none;stroke:#ff0000;stroke-opacity:1"
       id="path162" />
    <path
       d="m 38.405512,165.0196 a 9.448819,9.448819 0 1 0 -18.897638,0 9.448819,9.448819 0 1 0 18.897638,0 z"
       style="fill:none;stroke:#ff0000;stroke-opacity:1"
       id="path164" />
    <path
       d="M 1022.9724,13.8385 A 11.338583,11.338583 0 0 0 1011.6339,2.5 H 13.838583 A 11.338583,11.338583 0 0 0 2.5,13.8385 v 166.2993 a 11.338583,11.338583 0 0 0 11.338583,11.3385 H 1011.6339 a 11.338583,11.338583 0 0 0 11.3385,-11.3385 z"
       style="fill:none;stroke:#ff0000;stroke-opacity:1"
       id="path166" />
  </g>
</svg>
