<?xml version="1.0" encoding="UTF-8" standalone="no"?>
<svg
   viewBox="0 0 1133.8583 944.88192"
   width="300mm"
   height="250mm"
   version="1.1"
   id="svg39"
   sodipodi:docname="Gear display2.svg"
   inkscape:version="1.1.2 (b8e25be833, 2022-02-05)"
   xmlns:inkscape="http://www.inkscape.org/namespaces/inkscape"
   xmlns:sodipodi="http://sodipodi.sourceforge.net/DTD/sodipodi-0.dtd"
   xmlns="http://www.w3.org/2000/svg"
   xmlns:svg="http://www.w3.org/2000/svg">
  <sodipodi:namedview
     id="namedview41"
     pagecolor="#ffffff"
     bordercolor="#666666"
     borderopacity="1.0"
     inkscape:pageshadow="2"
     inkscape:pageopacity="0.0"
     inkscape:pagecheckerboard="0"
     showgrid="false"
     inkscape:zoom="0.55945568"
     inkscape:cx="-282.41737"
     inkscape:cy="210.9193"
     inkscape:window-width="1600"
     inkscape:window-height="837"
     inkscape:window-x="-8"
     inkscape:window-y="-8"
     inkscape:window-maximized="1"
     inkscape:current-layer="g37"
     width="290px"
     units="mm"
     inkscape:document-units="mm" />
  <desc
     id="desc9">Gear display.dxf - scale = 1.0, origin = (0.0, 0.0), method = manual</desc>
  <defs
     id="defs23">
    <marker
       id="DistanceX"
       orient="auto"
       refX="0"
       refY="0"
       style="overflow:visible">
      <path
         d="M 3,-3 -3,3 M 0,-5 V 5"
         style="stroke:#000000;stroke-width:0.5"
         id="path11" />
    </marker>
    <pattern
       id="Hatch"
       patternUnits="userSpaceOnUse"
       width="8"
       height="8"
       x="0"
       y="0">
      <path
         d="M8 4 l-4,4"
         stroke="#000000"
         stroke-width="0.25"
         linecap="square"
         id="path14" />
      <path
         d="M6 2 l-4,4"
         stroke="#000000"
         stroke-width="0.25"
         linecap="square"
         id="path16" />
      <path
         d="M4 0 l-4,4"
         stroke="#000000"
         stroke-width="0.25"
         linecap="square"
         id="path18" />
    </pattern>
    <symbol
       id="*MODEL_SPACE" />
    <symbol
       id="*PAPER_SPACE" />
  </defs>
  <g
     inkscape:groupmode="layer"
     inkscape:label="0"
     id="g37">
    <path
       d="m 110.40551,310.15354 a 18.89764,18.89764 0 1 0 -37.795277,0 18.89764,18.89764 0 1 0 37.795277,0 z"
       style="fill:none;stroke:#ff0000;stroke-opacity:1"
       id="path25" />
    <path
       d="m 38.405512,353.99606 a 9.448819,9.448819 0 1 0 -18.897638,0 9.448819,9.448819 0 1 0 18.897638,0 z"
       style="fill:none;stroke:#ff0000;stroke-opacity:1"
       id="path27" />
    <path
       d="m 38.405512,28.95669 a 9.448819,9.448819 0 1 0 -18.897638,0 9.448819,9.448819 0 1 0 18.897638,0 z"
       style="fill:none;stroke:#ff0000;stroke-opacity:1"
       id="path29" />
    <path
       d="m 382.34252,353.99606 a 9.44882,9.44882 0 1 0 -18.89764,0 9.44882,9.44882 0 1 0 18.89764,0 z"
       style="fill:none;stroke:#fe0000;stroke-opacity:1"
       id="path31" />
    <path
       d="m 382.34252,28.95669 a 9.44882,9.44882 0 1 0 -18.89764,0 9.44882,9.44882 0 1 0 18.89764,0 z"
       style="fill:none;stroke:#ff0000;stroke-opacity:1"
       id="path33" />
    <path
       d="m 388.01181,380.45276 a 11.338583,11.338583 0 0 0 11.33858,-11.33859 V 13.83858 A 11.338583,11.338583 0 0 0 388.01181,2.5 H 13.838582 A 11.338583,11.338583 0 0 0 2.5,13.83858 v 355.27559 a 11.338583,11.338583 0 0 0 11.338582,11.33859 z"
       style="fill:none;stroke:#ff0000;stroke-opacity:1"
       id="path35" />
  </g>
</svg>
